<svg width="96" height="96" viewBox="0 0 96 96" fill="none" xmlns="http://www.w3.org/2000/svg">
  <rect width="96" height="96" rx="20" fill="#1F2630"/>
  <rect x="6" y="6" width="84" height="84" rx="16" stroke="#39E7AC" stroke-opacity="0.32" stroke-width="2"/>
  <path d="M48 18C31.431 18 18 31.431 18 48C18 64.569 31.431 78 48 78C58.875 78 68.396 72.209 73.659 63.547V49.5H49.5V59.25H62.44C59.199 64.627 53.922 67.875 48 67.875C37.023 67.875 28.125 58.977 28.125 48C28.125 37.023 37.023 28.125 48 28.125C53.476 28.125 58.434 30.343 62.031 33.928L69.113 26.846C63.687 21.377 56.236 18 48 18Z" fill="#EDF3FB"/>
  <path d="M48 37.5H72V47.25H48V37.5Z" fill="#39E7AC"/>
  <path d="M47.959 47.25H72V57H47.959V47.25Z" fill="#39E7AC" fill-opacity="0.7"/>
</svg>
